# xmcd
#
# Track frame offsets:
# 150
# 12050
# 21795
# 34750
# 47440
# 59730
# 75475
# 87425
# 96850
# 109525
# 123585
# 137665
#
# Disc length: 2008 seconds
#
#
# Revision: 0
# Processed by: cddbd v1.5.1PL2 Copyright (c) Steve Scherf et al.
# Submitted via: FreeRIP 2.944 
#
DISCID=9107d60c
DTITLE=Goiá - Matando Saudade
DYEAR=1900
DGENRE=Sertaneja
TTITLE0=Luz de Minh'alma
TTITLE1=Tela branca do meu coração
TTITLE2=Natal em goiás
TTITLE3=Vinte anos de silêncio
TTITLE4=Adeus filhinha
TTITLE5=Piadas de minha terra
TTITLE6=Minuano do sudoeste
TTITLE7=Chapadão
TTITLE8=Messalina
TTITLE9=Pranto da meia noite
TTITLE10=Poluição
TTITLE11=Campos amados de coromandel
EXTD=
EXTT0=
EXTT1=
EXTT2=
EXTT3=
EXTT4=
EXTT5=
EXTT6=
EXTT7=
EXTT8=
EXTT9=
EXTT10=
EXTT11=
PLAYORDER=
